<?xml version="1.0" encoding="UTF-8" standalone="no"?>
<svg width="24px" height="24px" viewBox="0 0 24 24" xmlns="http://www.w3.org/2000/svg"><path d="M 12.203125 0.96679688 C 9.4461248 0.96679688 7.203125 3.2097969 7.203125 5.9667969 L 7.203125 8.9667969 L 6.203125 8.9667969 C 5.0985555 8.9667969 4.203125 9.8622276 4.203125 10.966797 L 4.203125 20.966797 C 4.203125 22.071366 5.0985555 22.966797 6.203125 22.966797 L 18.203125 22.966797 C 19.307694 22.966797 20.203125 22.071366 20.203125 20.966797 L 20.203125 10.966797 C 20.203125 9.8622276 19.307694 8.9667969 18.203125 8.9667969 L 17.203125 8.9667969 L 17.203125 5.9667969 C 17.203125 3.2097969 14.960125 0.96679688 12.203125 0.96679688 z M 12.203125 2.9667969 C 13.857125 2.9667969 15.203125 4.3127969 15.203125 5.9667969 L 15.203125 8.9667969 L 9.203125 8.9667969 L 9.203125 5.9667969 C 9.203125 4.3127969 10.549125 2.9667969 12.203125 2.9667969 z M 12.232422 13.751953 C 12.519344 13.751953 12.683968 13.963342 12.705078 14.335938 L 12.738281 14.931641 C 12.746628 15.348593 12.738703 15.61622 13.134766 15.853516 C 13.530829 16.090811 13.713844 16.592518 13.714844 16.970703 C 13.714862 17.800659 13.042846 18.472674 12.212891 18.472656 C 11.382936 18.472674 10.710919 17.800659 10.710938 16.970703 C 10.712447 16.593206 10.801426 16.168688 11.111328 15.953125 C 11.61594 15.602124 11.708744 15.335809 11.714844 14.943359 L 11.691406 14.335938 C 11.691406 13.962745 11.9455 13.751953 12.232422 13.751953 z " id="path2" /></svg>
