<svg xmlns:rdf="http://www.w3.org/1999/02/22-rdf-syntax-ns#" xmlns:svg="http://www.w3.org/2000/svg" xmlns="http://www.w3.org/2000/svg" width="400mm" height="400mm" viewBox="0 0 400 400"><path style="font-style:normal;font-weight:normal;font-size:11.62858868px;line-height:1.25;font-family:sans-serif;letter-spacing:0px;word-spacing:0px;display:inline;fill:#ffffff;fill-opacity:1;stroke:none;stroke-width:0.26458332" d="m 150.3707,16.562167 c -24.87916,0 -48.67743,6.942427 -67.664154,17.908899 C 63.719816,45.273861 48.320462,59.724282 37.845022,79.693087 27.533262,99.498213 22.750282,120.61861 22.650063,146.80702 l -0.400904,104.76161 c -0.100218,26.1884 5.30022,52.58138 15.61198,72.55017 10.47544,19.80512 26.264953,36.24932 45.251683,47.21579 27.079398,25.19101 137.783698,11.9615 92.757088,-0.21208 -22.1326,-2.26478 -17.74378,-23.97453 -25.25444,-33.70329 -8.48165,-3.90842 -15.80857,-4.85481 -34.99647,-15.70293 -11.13015,-6.71084 -17.953027,-12.98494 -24.172817,-25.09717 -6.05612,-12.27592 -9.135382,-23.59984 -9.272878,-39.63975 l -0.869345,-101.416 c -0.137495,-16.03994 3.02777,-30.83451 9.08389,-42.94674 6.21979,-12.27589 13.45845,-20.742945 24.5886,-27.290094 16.80937,-7.547539 31.68931,-13.594121 48.56217,-11.570786 0.43642,-9.262784 0.26309,-13.036804 -3.11448,-28.460838 12.22406,-11.610304 28.3246,-16.244174 28.3246,-16.244174 C 211.0358,20.03647 160.7138,16.684205 150.3707,16.562167 Z m 65.17515,80.115411 c 11.54184,26.045542 12.03944,51.339992 13.64749,78.641472 37.18905,-1.25429 52.62492,9.73692 53.11523,-20.53155 -1.79774,-26.32204 -6.6361,-53.42712 -17.72024,-73.524383 -24.72001,2.827485 -49.3298,-13.34207 -49.04248,15.414461 z m -3.87214,222.930452 c 61.32074,-3.90956 70.79981,-25.96313 71.4664,-70.35725 l 0.75596,-22.5137 c -76.37781,-12.33455 -56.2885,42.64972 -72.22236,92.87095 z" id="text817-4"/> <g aria-label="E" style="font-style:normal;font-weight:normal;font-size:10.58333302px;line-height:1.25;font-family:sans-serif;letter-spacing:0px;word-spacing:0px;display:inline;fill:#ffffff;fill-opacity:1;stroke:none;stroke-width:0.20396462" id="text817-7-3-1" transform="matrix(1.297202,0,0,1.297202,-3.7745916,-235.16313)"> <path  style="font-style:normal;font-variant:normal;font-weight:normal;font-stretch:normal;font-size:359.83334351px;font-family:Bahnschrift;-inkscape-font-specification:Bahnschrift;fill:#ffffff;fill-opacity:1;stroke-width:0.77088994"  d="m 486.71347,819.29144 c 23.20138,115.91542 13.43588,337.72036 1.35285,556.88866 -11.21589,203.4396 -44.4664,384.8227 46.83007,384.8227 l 73.16425,2.104 c 0,0 371.2921,-5.7613 442.59476,-25.5461 44.8672,-12.4496 71.7065,-55.091 75.252,-80.9752 3.3739,-60.1685 -84.7544,-35.0762 -121.1099,-33.217 -171.86666,8.7214 -270.09897,5.4433 -270.09897,5.4433 -148.65334,-22.7582 -132.64353,87.8976 -111.47536,-127.9381 4.00818,-40.8683 7.48879,-113.4894 29.05872,-138.4111 41.54793,-48.0042 105.39277,-37.0296 360.07491,-22.1425 42.7182,-42.4482 31.1477,-93.7107 -10.0465,-105.8855 -61.41531,-18.1511 -192.57262,-16.723 -287.07863,-18.9275 -31.10721,-0.7256 -73.42367,4.4858 -73.42367,4.4858 8.792,-85.7458 -53.87489,-324.96055 15.56128,-321.44451 201.95806,-15.54827 452.49482,158.58261 447.82252,-118.75805 -172.77037,14.55484 -490.09648,-76.27689 -618.47833,39.5011 z"  transform="scale(0.26458333)"  id="path874-5"/> </g> <g id="layer1" transform="translate(0,103)" style="display:inline"> <path style="font-style:normal;font-weight:normal;font-size:11.62858868px;line-height:1.25;font-family:sans-serif;letter-spacing:0px;word-spacing:0px;fill:#faebd7;fill-opacity:1;stroke:none;stroke-width:0.26458332" d="m 151.02813,-82.455645 c -24.87916,0 -46.81192,5.483189 -65.798644,16.449661 C 66.242758,-55.20319 51.511579,-39.817323 41.036142,-19.84852 30.724383,-0.04339879 25.446217,22.95335 25.568538,49.141664 l 0.47247,101.153466 c 0.122321,26.18831 5.155845,49.26737 15.467604,69.23617 10.475437,19.80512 25.206616,35.191 44.193344,46.15747 27.079404,25.191 124.521464,12.54264 90.834144,4.71579 -22.1326,-2.26479 -22.15232,-20.72967 -29.47399,-32.91529 -8.48165,-3.90843 -14.53724,-4.3199 -33.72514,-15.16802 -11.13015,-6.71084 -19.805112,-16.12215 -26.024902,-28.23439 -6.056113,-12.27591 -8.94932,-26.43463 -9.083883,-42.47457 L 77.354115,47.422897 C 77.219552,31.382926 80.381885,17.306544 86.437998,5.1943109 92.657788,-7.0815753 101.33275,-16.493571 112.4629,-23.040719 c 16.80937,-7.54754 30.83887,-11.760936 47.71173,-9.7376 0.43642,-9.262786 -0.90866,-9.880705 -4.2862,-25.304738 12.22406,-11.610304 22.91954,-15.601614 22.91954,-15.601614 22.28706,-9.014268 -17.43674,-8.648936 -27.77984,-8.770974 z m 66.32179,75.9995882 C 228.89176,19.58948 230.12381,42.632914 231.73186,69.934398 271.05908,67.210125 278.38136,79.80029 278.87167,49.531823 277.07392,23.20978 273.628,0.60531251 262.54386,-19.491949 237.82385,-16.664461 219.04697,-31.149342 217.34992,-6.4560568 Z M 214.31955,215.02053 c 55.84008,-7.50034 65.20575,-24.03545 65.87235,-68.42957 v -20.24585 c -69.76322,-11.76758 -49.93849,38.45418 -65.87235,88.67542 z" id="text817"/> </g> <g id="layer2" style="display:inline" transform="translate(0,-100)"> <g aria-label="E" style="font-style:normal;font-weight:normal;font-size:10.58333302px;line-height:1.25;font-family:sans-serif;letter-spacing:0px;word-spacing:0px;fill:#bfdde0;fill-opacity:1;stroke:none;stroke-width:0.20396462" id="text817-7-3" transform="matrix(1.297202,0,0,1.297202,-3.7745916,-135.16313)"> <path  style="font-style:normal;font-variant:normal;font-weight:normal;font-stretch:normal;font-size:359.83334351px;font-family:Bahnschrift;-inkscape-font-specification:Bahnschrift;fill:#bfdde0;fill-opacity:1;stroke-width:0.77088994"  d="m 495.80078,822.375 c 23.20138,115.91542 14.97766,339.2621 2.89463,558.4304 -11.21589,203.4396 -45.62274,373.7825 45.67373,373.7825 h 69.72656 c 0,0 355.88435,-3.4487 427.1869,-23.2335 44.8672,-12.4496 68.6074,-41.9467 72.1529,-67.8309 3.3739,-60.1685 -77.0455,-33.5345 -113.401,-31.6753 -171.86666,8.7214 -272.49424,5.6361 -272.49424,5.6361 -145.62484,-14.2233 -137.95716,76.9124 -116.78899,-138.9233 4.00818,-40.8683 10.13321,-109.8845 29.05872,-136.8693 37.14285,-52.9599 99.87845,-48.2506 361.71881,-27.8572 43.2689,-49.6065 22.523,-83.1108 -12.07979,-94.8295 -60.65733,-20.5423 -186.77917,-13.5769 -281.28518,-15.7814 -31.10721,-0.7256 -77.5888,8.0022 -77.5888,8.0022 8.792,-85.7458 -50.13057,-346.5454 23.71069,-341.92809 C 856.24378,873.74944 1098.8613,1037.5692 1098.8613,789.04102 926.09094,803.59586 624.18263,706.59701 495.80078,822.375 Z"  transform="scale(0.26458333)"  id="path874"/> </g> </g></svg>