<?xml version="1.0" encoding="UTF-8" standalone="no"?>
<svg
   xmlns:dc="http://purl.org/dc/elements/1.1/"
   xmlns:cc="http://creativecommons.org/ns#"
   xmlns:rdf="http://www.w3.org/1999/02/22-rdf-syntax-ns#"
   xmlns:svg="http://www.w3.org/2000/svg"
   xmlns="http://www.w3.org/2000/svg"
   xmlns:sodipodi="http://sodipodi.sourceforge.net/DTD/sodipodi-0.dtd"
   xmlns:inkscape="http://www.inkscape.org/namespaces/inkscape"
   height="426.66667pt"
   viewBox="0 0 426.66667 426.66667"
   width="426.66667pt"
   version="1.1"
   id="svg4530"
   sodipodi:docname="plus.svg"
   inkscape:version="0.92.4 (5da689c313, 2019-01-14)">
  <metadata
     id="metadata4536">
    <rdf:RDF>
      <cc:Work
         rdf:about="">
        <dc:format>image/svg+xml</dc:format>
        <dc:type
           rdf:resource="http://purl.org/dc/dcmitype/StillImage" />
      </cc:Work>
    </rdf:RDF>
  </metadata>
  <defs
     id="defs4534" />
  <sodipodi:namedview
     pagecolor="#ffffff"
     bordercolor="#666666"
     borderopacity="1"
     objecttolerance="10"
     gridtolerance="10"
     guidetolerance="10"
     inkscape:pageopacity="0"
     inkscape:pageshadow="2"
     inkscape:window-width="1366"
     inkscape:window-height="705"
     id="namedview4532"
     showgrid="false"
     inkscape:zoom="0.66622719"
     inkscape:cx="250.84474"
     inkscape:cy="329.88749"
     inkscape:window-x="-8"
     inkscape:window-y="-8"
     inkscape:window-maximized="1"
     inkscape:current-layer="svg4530" />
  <g
     id="g4539">
    <path
       id="path4528"
       d="M 371.89793,199.43143 H 224.75895 l 2.47759,-144.664618 c 0.1665,-9.721812 -4.17771,-17.61732 -13.90417,-17.61732 -9.72324,0 -13.90094,7.894083 -13.90094,17.61732 V 199.43143 H 54.766812 c -9.723237,0 -17.61732,4.1777 -17.61732,13.90094 0,9.72647 7.894083,13.90417 17.61732,13.90417 H 199.43143 v 144.66139 c 0,9.72646 4.1777,17.62055 13.90094,17.62055 9.72646,0 13.90417,-7.89409 13.90417,-17.62055 V 227.23654 h 144.66139 c 9.72646,0 17.62055,-4.1777 17.62055,-13.90417 0,-9.72324 -7.89409,-13.90094 -17.62055,-13.90094 z"
       inkscape:connector-curvature="0"
       sodipodi:nodetypes="scssscssscssscsss"
       style="stroke-width:0.82586229" />
  </g>
</svg>
